<svg width="18" height="17" viewBox="0 0 18 17" fill="none" xmlns="http://www.w3.org/2000/svg">
<path d="M6.1875 5.84375C6.33668 5.84375 6.47976 5.89972 6.58525 5.99935C6.69074 6.09898 6.75 6.2341 6.75 6.375V12.75C6.75 12.8909 6.69074 13.026 6.58525 13.1257C6.47976 13.2253 6.33668 13.2812 6.1875 13.2812C6.03832 13.2812 5.89524 13.2253 5.78975 13.1257C5.68426 13.026 5.625 12.8909 5.625 12.75V6.375C5.625 6.2341 5.68426 6.09898 5.78975 5.99935C5.89524 5.89972 6.03832 5.84375 6.1875 5.84375V5.84375ZM9 5.84375C9.14918 5.84375 9.29226 5.89972 9.39775 5.99935C9.50324 6.09898 9.5625 6.2341 9.5625 6.375V12.75C9.5625 12.8909 9.50324 13.026 9.39775 13.1257C9.29226 13.2253 9.14918 13.2812 9 13.2812C8.85082 13.2812 8.70774 13.2253 8.60225 13.1257C8.49676 13.026 8.4375 12.8909 8.4375 12.75V6.375C8.4375 6.2341 8.49676 6.09898 8.60225 5.99935C8.70774 5.89972 8.85082 5.84375 9 5.84375V5.84375ZM12.375 6.375C12.375 6.2341 12.3157 6.09898 12.2102 5.99935C12.1048 5.89972 11.9617 5.84375 11.8125 5.84375C11.6633 5.84375 11.5202 5.89972 11.4148 5.99935C11.3093 6.09898 11.25 6.2341 11.25 6.375V12.75C11.25 12.8909 11.3093 13.026 11.4148 13.1257C11.5202 13.2253 11.6633 13.2812 11.8125 13.2812C11.9617 13.2812 12.1048 13.2253 12.2102 13.1257C12.3157 13.026 12.375 12.8909 12.375 12.75V6.375Z" fill="#969696"/>
<path fill-rule="evenodd" clip-rule="evenodd" d="M16.3125 3.1875C16.3125 3.46929 16.194 3.73954 15.983 3.9388C15.772 4.13806 15.4859 4.25 15.1875 4.25H14.625V13.8125C14.625 14.3761 14.3879 14.9166 13.966 15.3151C13.544 15.7136 12.9717 15.9375 12.375 15.9375H5.625C5.02826 15.9375 4.45597 15.7136 4.03401 15.3151C3.61205 14.9166 3.375 14.3761 3.375 13.8125V4.25H2.8125C2.51413 4.25 2.22798 4.13806 2.017 3.9388C1.80603 3.73954 1.6875 3.46929 1.6875 3.1875V2.125C1.6875 1.84321 1.80603 1.57296 2.017 1.3737C2.22798 1.17444 2.51413 1.0625 2.8125 1.0625H6.75C6.75 0.780707 6.86853 0.510456 7.07951 0.311199C7.29048 0.111942 7.57663 0 7.875 0L10.125 0C10.4234 0 10.7095 0.111942 10.9205 0.311199C11.1315 0.510456 11.25 0.780707 11.25 1.0625H15.1875C15.4859 1.0625 15.772 1.17444 15.983 1.3737C16.194 1.57296 16.3125 1.84321 16.3125 2.125V3.1875ZM4.63275 4.25L4.5 4.31269V13.8125C4.5 14.0943 4.61853 14.3645 4.82951 14.5638C5.04048 14.7631 5.32663 14.875 5.625 14.875H12.375C12.6734 14.875 12.9595 14.7631 13.1705 14.5638C13.3815 14.3645 13.5 14.0943 13.5 13.8125V4.31269L13.3672 4.25H4.63275ZM2.8125 3.1875V2.125H15.1875V3.1875H2.8125Z" fill="#969696"/>
</svg>
